<svg width="256" height="256" viewBox="0 0 256 256" fill="none" xmlns="http://www.w3.org/2000/svg">
<circle cx="128" cy="128" r="128" fill="#136C66"/>
<mask id="mask0_249_423" style="mask-type:alpha" maskUnits="userSpaceOnUse" x="20" y="21" width="214" height="214">
<rect x="20" y="44.1116" width="191.986" height="191.986" transform="rotate(-6.9141 20 44.1116)" fill="#D9D9D9"/>
</mask>
<g mask="url(#mask0_249_423)">
<path d="M136.481 207.263C125.495 208.595 114.919 207.763 104.751 204.765C94.584 201.768 85.4934 197.129 77.4796 190.848C69.4658 184.568 62.7885 176.849 57.4477 167.693C52.1069 158.537 48.7704 148.466 47.4383 137.481C46.1062 126.495 46.9389 115.919 49.9364 105.751C52.934 95.584 57.573 86.4934 63.8534 78.4796C70.1338 70.4657 77.8522 63.7885 87.0085 58.4477C96.1648 53.1069 106.236 49.7704 117.221 48.4383C125.824 47.3951 134.116 47.6654 142.098 49.2493C150.079 50.8331 157.586 53.4818 164.617 57.1954L154.522 70.3051C149.108 67.7385 143.446 65.9069 137.538 64.8102C131.63 63.7136 125.5 63.5504 119.147 64.3208C101.544 66.4554 87.3051 74.4606 76.4306 88.3364C65.5562 102.212 61.1862 117.952 63.3208 135.555C65.4554 153.158 73.4606 167.397 87.3364 178.271C101.212 189.145 116.952 193.515 134.555 191.381C138.79 190.867 142.845 189.973 146.719 188.697C150.593 187.421 154.295 185.831 157.825 183.926L171.205 194.592C166.1 197.897 160.657 200.638 154.878 202.816C149.098 204.995 142.966 206.477 136.481 207.263ZM190.143 184.64L187.254 160.816L163.431 163.705L161.505 147.823L185.329 144.934L182.44 121.11L198.322 119.184L201.211 143.008L225.035 140.119L226.961 156.001L203.137 158.89L206.026 182.714L190.143 184.64ZM120.163 165.729L82.3198 136.071L92.0894 123.605L117.466 143.493L187.225 54.2524L199.691 64.022L120.163 165.729Z" fill="white"/>
</g>
<rect x="157.704" y="117.684" width="71.9948" height="70.1691" transform="rotate(-5.56085 157.704 117.684)" fill="#136C66"/>
</svg>
